<?xml version="1.0" standalone="no"?>
<!DOCTYPE svg PUBLIC "-//W3C//DTD SVG 20010904//EN"
 "http://www.w3.org/TR/2001/REC-SVG-20010904/DTD/svg10.dtd">
<svg version="1.0" xmlns="http://www.w3.org/2000/svg"
 width="802.000000pt" height="802.000000pt" viewBox="0 0 802.000000 802.000000"
 preserveAspectRatio="xMidYMid meet">
<metadata>
Created by potrace 1.11, written by Peter Selinger 2001-2013
</metadata>
<g transform="translate(0.000000,802.000000) scale(0.100000,-0.100000)"
fill="#000000" stroke="none">
<path d="M742 7160 c-89 -40 -124 -142 -79 -230 24 -48 46 -63 165 -112 42
-17 83 -36 91 -42 7 -5 18 -11 25 -12 17 -2 107 -64 137 -94 67 -66 124 -199
97 -226 -8 -7 -48 -15 -98 -17 -47 -3 -85 -6 -85 -7 0 -2 -31 -4 -69 -5 -55
-2 -77 2 -105 19 -43 24 -48 31 -102 118 -51 85 -94 118 -156 123 -139 11
-222 -128 -152 -256 13 -24 26 -46 29 -49 3 -3 18 -24 33 -48 37 -57 187 -206
187 -186 0 3 12 -1 28 -10 62 -33 192 -59 232 -47 11 4 137 13 180 14 101 1
151 -24 170 -85 8 -24 14 -48 15 -55 0 -6 4 -15 8 -19 4 -4 7 -13 7 -21 0 -7
7 -30 17 -51 9 -20 17 -39 18 -42 0 -3 9 -19 18 -37 9 -18 17 -38 17 -46 0
-19 -26 -40 -53 -44 -43 -6 -161 -34 -171 -41 -6 -4 -13 -7 -16 -7 -34 -2
-258 -113 -293 -146 -12 -10 -24 -19 -27 -19 -9 0 -33 -72 -35 -105 -4 -94 79
-173 175 -166 31 3 137 45 150 60 6 8 53 29 61 27 3 0 12 4 20 11 8 6 27 14
43 17 15 3 33 9 39 14 18 15 97 31 182 37 28 2 52 5 55 6 3 1 10 0 15 -1 6 -1
33 -4 60 -6 69 -6 60 -3 186 -50 74 -27 211 -111 297 -180 84 -67 84 -67 130
-97 23 -15 42 -24 42 -20 0 4 7 -3 17 -16 16 -23 15 -25 -6 -43 -13 -10 -40
-18 -60 -18 -103 -2 -349 -10 -371 -13 -143 -20 -218 -58 -332 -169 -70 -69
-112 -126 -148 -203 -28 -59 -30 -67 -34 -123 -6 -89 51 -150 273 -294 60 -39
388 -230 406 -237 5 -2 18 -10 28 -19 9 -8 17 -12 17 -9 0 7 179 -96 203 -118
16 -14 16 -17 2 -32 -9 -9 -43 -33 -76 -54 -76 -49 -76 -62 -1 -55 31 3 73 6
92 7 106 4 106 3 35 -166 -14 -34 -43 -122 -50 -151 -2 -10 -11 -48 -20 -84
-9 -36 -17 -93 -19 -127 -3 -68 -19 -101 -53 -108 -13 -3 -31 -7 -41 -9 -69
-15 -309 -132 -322 -156 -13 -24 5 -30 107 -34 116 -5 191 -26 311 -88 99 -51
361 -228 370 -250 2 -5 9 -8 16 -8 7 0 20 -8 30 -19 9 -10 36 -28 60 -41 30
-15 46 -30 49 -46 2 -14 1 -27 -3 -29 -9 -6 -100 -142 -100 -149 0 -3 -13 -24
-28 -48 -16 -24 -38 -59 -48 -78 -10 -19 -22 -37 -25 -40 -10 -8 -66 -133 -73
-162 -3 -16 -11 -28 -17 -28 -6 0 -8 -4 -4 -9 7 -12 -35 -101 -48 -101 -4 0
-6 -4 -3 -9 3 -4 -17 -29 -44 -55 -28 -26 -50 -45 -50 -42 0 3 -12 -6 -27 -20
-14 -13 -28 -22 -31 -20 -2 3 -16 -6 -30 -19 -14 -13 -29 -22 -33 -20 -4 3 -9
-3 -12 -14 -3 -12 13 -37 51 -77 30 -32 75 -80 99 -106 103 -110 265 -138 366
-64 31 23 58 15 64 -20 10 -58 16 -101 17 -119 1 -11 3 -22 6 -25 3 -3 11 -17
17 -31 11 -25 84 -68 128 -74 11 -2 31 -6 45 -9 57 -14 249 -34 399 -41 393
-19 851 -25 936 -13 101 15 121 20 187 43 71 24 135 59 180 97 15 13 37 31 50
41 51 40 185 177 213 218 16 24 43 60 60 80 49 58 65 79 65 84 0 2 11 21 25
41 14 20 25 50 25 66 0 30 -19 58 -39 58 -6 0 -11 4 -11 8 0 5 -16 14 -35 22
-19 8 -35 17 -35 21 0 4 -9 10 -19 14 -38 12 -129 91 -194 170 -37 44 -68 85
-68 92 -3 24 -20 68 -49 125 -35 67 -45 82 -108 167 -48 62 -62 89 -58 105 11
37 287 254 371 290 33 15 85 60 85 74 0 29 -126 123 -185 138 -5 1 -23 8 -40
15 -16 7 -34 13 -40 13 -20 2 -16 44 9 90 13 25 27 59 31 75 12 54 26 57 118
23 88 -32 180 -63 200 -66 7 -1 18 -5 25 -9 6 -5 12 -6 12 -3 0 2 15 0 32 -5
30 -9 75 -16 153 -24 17 -2 32 -5 35 -6 3 -1 8 -1 11 -1 4 1 35 3 70 6 71 6
116 13 139 23 8 3 20 7 25 8 98 24 218 61 287 90 48 19 94 35 102 35 8 0 18 5
21 10 3 6 15 10 26 10 10 0 19 3 19 8 0 4 15 13 33 21 86 38 205 145 250 226
14 24 34 71 46 103 18 54 19 64 6 111 -16 61 -36 95 -70 117 -19 13 -136 57
-180 68 -5 2 -17 6 -25 9 -22 9 -262 88 -280 93 -8 2 -33 8 -55 14 -40 12
-139 33 -205 45 -19 3 -87 8 -150 11 -63 4 -123 10 -133 15 -20 11 -50 77 -43
96 3 7 0 18 -7 25 -15 15 -15 47 -2 69 9 13 116 50 185 63 48 9 136 39 255 86
211 84 304 105 465 104 87 0 155 -9 194 -23 11 -5 23 -9 26 -9 28 -3 162 -64
206 -94 23 -15 44 -24 48 -21 3 4 6 2 6 -4 0 -6 24 -29 53 -51 28 -22 84 -71
122 -108 76 -73 120 -97 176 -96 84 1 153 52 175 129 28 97 7 151 -100 258
-65 65 -216 189 -216 178 0 -4 -6 -1 -13 7 -14 18 -48 38 -138 85 -37 19 -69
41 -72 49 -5 13 63 110 100 141 6 6 37 49 68 97 31 49 66 93 77 99 30 16 145
6 198 -18 25 -12 74 -32 110 -46 58 -23 84 -31 140 -43 45 -11 143 -10 195 1
62 13 178 61 183 76 2 5 8 9 13 9 11 0 8 -2 104 77 93 77 108 92 128 135 59
124 -29 271 -165 276 -55 2 -99 -21 -180 -93 -78 -70 -139 -105 -180 -105 -22
0 -83 17 -128 37 -8 3 -17 7 -20 8 -3 1 -21 8 -40 17 -29 12 -66 25 -125 42
-5 2 -14 4 -18 4 -5 0 -15 9 -22 19 -11 15 -10 24 7 57 23 45 104 134 133 147
11 5 27 13 35 19 13 9 62 30 83 35 4 2 10 4 15 5 4 2 12 4 17 5 6 2 12 4 15 5
25 9 138 26 235 36 83 7 100 11 136 29 74 39 107 125 86 228 -8 44 -80 112
-128 123 -48 10 -184 3 -272 -16 -32 -6 -72 -13 -90 -15 -18 -2 -33 -4 -34 -5
-2 -2 -6 -3 -10 -4 -97 -23 -223 -74 -299 -122 -58 -37 -204 -178 -204 -197 0
-9 -64 -111 -73 -118 -5 -3 -8 -8 -6 -10 5 -9 -13 -49 -22 -49 -5 0 -8 -3 -7
-7 7 -23 -150 -356 -177 -375 -5 -4 -7 -8 -3 -8 7 0 -66 -108 -109 -161 -19
-23 -173 -177 -195 -194 -55 -44 -78 -55 -128 -60 -87 -8 -88 -7 -87 88 1 87
-8 125 -54 224 -15 34 -30 73 -33 87 -5 27 17 52 49 54 17 0 33 3 91 15 22 5
84 58 84 73 0 7 4 14 10 14 9 0 23 61 24 100 1 31 -35 107 -63 134 -15 15 -48
33 -72 40 -39 12 -128 13 -169 3 -53 -14 -70 -20 -70 -27 0 -5 -8 -11 -18 -15
-22 -6 -84 -89 -75 -99 3 -3 0 -6 -7 -6 -7 0 -10 -3 -7 -6 3 -4 2 -14 -2 -23
-18 -32 -29 -131 -35 -311 -5 -125 -13 -169 -46 -266 -32 -93 -42 -112 -90
-174 -49 -63 -55 -69 -92 -84 -57 -23 -177 -48 -201 -42 -22 5 -23 9 -21 103
2 146 24 340 44 393 5 14 11 34 13 45 11 58 95 232 137 282 5 7 10 15 10 19 0
3 11 20 25 38 38 46 57 71 85 106 13 18 44 52 67 77 24 24 43 46 43 48 0 2 19
23 43 47 23 24 53 59 67 77 14 18 30 38 36 44 21 24 86 166 92 203 11 64 6
133 -16 239 -22 108 -30 134 -46 152 -6 7 -26 36 -45 66 -19 29 -48 62 -65 74
-36 23 -147 63 -175 63 -11 0 -23 5 -26 10 -4 6 -10 8 -15 5 -5 -3 -20 -1 -34
5 -19 7 -26 6 -26 -3 0 -9 -2 -9 -8 0 -4 7 -30 15 -57 18 -82 9 -110 13 -110
15 0 1 -20 4 -45 6 -238 20 -547 20 -640 -1 -22 -4 -61 -12 -95 -19 -5 -1 -14
-4 -20 -7 -9 -6 -80 -31 -97 -35 -5 -1 -11 -3 -15 -4 -5 -2 -12 -4 -18 -5 -5
-2 -12 -4 -15 -5 -18 -7 -53 -10 -105 -10 -66 1 -180 7 -180 10 0 1 -20 3 -45
5 -87 7 -176 14 -230 21 -30 3 -77 7 -105 9 -27 2 -84 6 -125 10 -266 25 -538
33 -625 19 -81 -12 -179 -70 -230 -136 -21 -27 -53 -97 -47 -102 3 -4 6 -19 7
-34 3 -41 27 -146 37 -157 4 -5 8 -16 8 -25 0 -8 14 -58 30 -110 17 -52 32
-104 35 -115 15 -64 17 -76 10 -92 -5 -10 -7 -21 -7 -25 1 -5 -3 -8 -9 -8 -5
0 -8 -3 -5 -8 2 -4 -8 -52 -23 -107 -26 -98 -30 -112 -32 -117 -1 -4 -7 -27
-20 -78 -6 -25 -12 -49 -13 -55 -2 -5 -6 -17 -9 -25 -3 -8 -16 -51 -28 -95
-13 -44 -27 -82 -31 -83 -4 -2 -6 -8 -3 -13 12 -18 -43 -21 -65 -2 -25 20 -69
111 -72 149 -1 13 -5 24 -8 24 -13 0 -2 230 14 299 10 40 20 80 21 90 2 9 4
16 5 16 2 0 9 38 13 75 2 20 6 40 8 45 7 12 3 90 -5 125 -8 37 -28 72 -54 98
-29 28 -100 65 -112 57 -5 -3 -11 -1 -15 5 -4 6 -10 8 -15 5 -5 -3 -11 -1 -14
4 -8 12 -83 -6 -121 -29 -57 -35 -77 -92 -66 -190 3 -27 55 -77 108 -101 28
-13 50 -26 47 -30 -2 -4 0 -11 6 -14 11 -7 -8 -44 -38 -74 -20 -21 -92 -117
-92 -124 0 -3 -5 -18 -12 -34 -6 -15 -12 -37 -13 -49 -5 -57 -25 -66 -88 -39
-40 16 -107 80 -107 102 0 7 -4 13 -8 13 -8 0 -27 33 -31 55 -1 6 -8 17 -16
25 -34 40 -106 218 -120 300 -3 19 -10 51 -15 70 -5 19 -11 58 -15 85 -3 28
-8 64 -11 82 -3 17 -7 49 -9 70 -2 21 -4 39 -6 41 -2 3 -4 12 -13 67 -8 55
-19 82 -74 195 -27 56 -55 93 -108 145 -86 83 -83 81 -159 127 -127 76 -282
144 -347 151 -22 3 -52 -2 -76 -13z m1973 -2886 c30 -5 43 -9 145 -41 30 -9
57 -18 60 -18 3 -1 14 -5 25 -10 11 -4 42 -17 69 -27 159 -61 498 -235 721
-370 50 -30 101 -61 115 -69 14 -7 27 -17 30 -20 3 -3 12 -9 20 -13 34 -16 55
-32 58 -45 4 -20 -15 -38 -40 -36 -30 3 -89 -21 -163 -64 -33 -20 -87 -48
-119 -62 -88 -38 -86 -54 5 -44 139 16 329 11 389 -8 30 -10 64 -20 75 -22 11
-3 32 -7 48 -11 15 -3 27 -9 27 -12 0 -4 10 -12 23 -18 42 -20 132 -71 187
-106 57 -35 108 -59 173 -78 20 -6 42 -20 47 -30 18 -33 -29 -144 -86 -202
-14 -14 -34 -17 -61 -9 -2 1 -5 1 -8 1 -3 0 -21 7 -41 15 -20 8 -50 16 -68 17
-17 1 -36 5 -41 9 -6 4 -32 10 -58 13 -27 3 -52 8 -57 11 -5 3 -21 7 -37 9
-15 2 -53 8 -83 12 -88 13 -310 7 -390 -11 -14 -3 -36 -7 -50 -10 -58 -11 -70
-14 -78 -19 -5 -3 -21 -7 -36 -10 -30 -5 -133 -34 -156 -43 -8 -3 -19 -7 -25
-8 -26 -7 -152 -58 -223 -90 -90 -42 -113 -69 -94 -110 24 -52 8 -93 -30 -80
-7 2 -33 7 -58 10 -25 2 -67 7 -95 10 -27 4 -55 11 -62 17 -7 6 -13 8 -13 5 0
-7 -95 19 -125 34 -11 5 -30 11 -43 12 -12 0 -22 5 -22 9 0 4 -8 8 -17 8 -38
0 -202 90 -248 136 -70 70 -86 100 -88 164 -2 72 36 236 89 376 19 51 34 97
34 103 0 6 5 11 11 11 5 0 8 4 5 8 -2 4 4 18 13 31 20 26 49 29 156 17 69 -8
86 -12 135 -33 19 -8 44 -19 55 -23 11 -4 34 -13 50 -20 17 -8 35 -14 40 -15
6 -2 34 -14 64 -29 64 -31 73 -32 64 -8 -24 61 -149 201 -216 240 -51 29 -166
61 -247 68 -135 11 -136 12 -145 124 -5 73 50 245 82 257 7 3 13 9 13 14 0 11
61 67 94 87 20 12 124 10 201 -4z m356 -1745 c11 -5 24 -22 30 -36 27 -71 0
-201 -30 -145 -6 11 -14 37 -17 58 -3 20 -9 47 -13 58 -6 18 -7 51 -2 71 2 8
10 6 32 -6z"/>
</g>
</svg>
